<?xml version="1.0" encoding="UTF-8"?>
<!DOCTYPE svg PUBLIC "-//W3C//DTD SVG 1.1//EN" "http://www.w3.org/Graphics/SVG/1.1/DTD/svg11.dtd">
<!-- Creator: CorelDRAW -->
<svg xmlns="http://www.w3.org/2000/svg" xml:space="preserve" width="2.3622in" height="4.72441in" version="1.1" style="shape-rendering:geometricPrecision; text-rendering:geometricPrecision; image-rendering:optimizeQuality; fill-rule:evenodd; clip-rule:evenodd"
viewBox="0 0 2362.2 4724.41"
 xmlns:xlink="http://www.w3.org/1999/xlink"
 xmlns:xodm="http://www.corel.com/coreldraw/odm/2003">
 <defs>
  <style type="text/css">
   <![CDATA[
    .fil3 {fill:none}
    .fil2 {fill:#373435}
    .fil1 {fill:#ED1C24}
    .fil0 {fill:#F7931E}
   ]]>
  </style>
   <clipPath id="id0">
    <path d="M1108.14 208.49c186.75,-11.72 405.04,-4.35 648.95,8.65 212.33,92.27 345.43,234.07 380.72,436.97 67.44,64.01 43.41,394.24 4.16,524.89 -332.13,1043.33 -599.13,1922.84 -770.56,2561.89 -259.59,608.16 545,56.26 717.9,-77.69 62.13,-48.13 -664.8,1074.2 -1359.69,637.69 -613.64,-300.46 -277.42,-1213.66 -83.44,-1703.96l570.92 -1958.69c26.28,-112.06 24.31,-227.26 -17.57,-346.94l-87.83 13.18 -3.56 -95.99z"/>
   </clipPath>
 </defs>
 <g id="Layer_x0020_1">
  <metadata id="CorelCorpID_0Corel-Layer"/>
  <path class="fil0" d="M1108.14 208.49c186.75,-11.72 405.04,-4.35 648.95,8.65 212.33,92.27 345.43,234.07 380.72,436.97 67.44,64.01 43.41,394.24 4.16,524.89 -332.13,1043.33 -599.13,1922.84 -770.56,2561.89 -259.59,608.16 545,56.26 717.9,-77.69 62.13,-48.13 -664.8,1074.2 -1359.69,637.69 -613.64,-300.46 -277.42,-1213.66 -83.44,-1703.96l570.92 -1958.69c26.28,-112.06 24.31,-227.26 -17.57,-346.94l-87.83 13.18 -3.56 -95.99z"/>
  <g style="clip-path:url(#id0)">
   <g id="_1622431287184">
    <path id="_1" class="fil1" d="M-826.6 4345.06l5142.32 -3650.98 -732.55 -1168.75c-493.77,350.58 -1043.67,630.18 -1481.3,1051.71 -774.38,745.92 -1365.57,1154.54 -1803.19,1280.24l-1857.82 1319.03 732.54 1168.75z"/>
    <rect class="fil2" transform="matrix(3.39755 -2.22244 2.10055 3.5947 -1470.24 4404.3)" width="1745.13" height="410.08"/>
    <path class="fil2" d="M-1529.18 9094.05l9056.72 -8989.75 -2053.56 -2288.96c-1101.15,1093.03 -2504.74,1948.95 -3303.47,3279.08 -540.24,899.67 -1090.17,1526.22 -1658.13,1645.87 -1882,396.45 -2730.07,2709.88 -4095.11,4064.8l2053.56 2288.96z"/>
   </g>
  </g>
  <path class="fil3" d="M1108.14 208.49c186.75,-11.72 405.04,-4.35 648.95,8.65 212.33,92.27 345.43,234.07 380.72,436.97 67.44,64.01 43.41,394.24 4.16,524.89 -332.13,1043.33 -599.13,1922.84 -770.56,2561.89 -259.59,608.16 545,56.26 717.9,-77.69 62.13,-48.13 -664.8,1074.2 -1359.69,637.69 -613.64,-300.46 -277.42,-1213.66 -83.44,-1703.96l570.92 -1958.69c26.28,-112.06 24.31,-227.26 -17.57,-346.94l-87.83 13.18 -3.56 -95.99z"/>
 </g>
</svg>
